Coordinates
version=1
nRows=8
nColumns=28
inDegrees=yes

Units are S.I. units (second, meters, Newtons, ...)
Angles are in degrees.

endheader
time	pelvis_tilt	pelvis_list	pelvis_rotation	pelvis_tx	pelvis_ty	pelvis_tz	hip_flexion_r	hip_adduction_r	hip_rotation_r	knee_angle_r	ankle_angle_r	subtalar_angle_r	mtp_angle_r	hip_flexion_l	hip_adduction_l	hip_rotation_l	knee_angle_l	socket_flexion	socket_adduction	socket_rotation	socket_tx	socket_ty	socket_tz	foot_flex	lumbar_extension	lumbar_bending	lumbar_rotation
      0.00000000	     -2.53311596	     -7.52871984	     -7.55998886	     -0.88279413	      0.98947976	      0.27150825	    -22.30571262	     10.54458641	      4.39900109	     -3.76520597	     11.63073968	     -8.79051282	      4.48816414	     31.10905542	     -9.90392944	     11.50791633	     -7.74693132	      0.00000000	      0.00000000	      0.00000000	      0.00000000	      0.00000000	      0.00000000	     -0.56343425	     -9.79636877	      6.46125782	      9.42637188
      0.00416667	     -2.59500549	     -7.55991356	     -7.47421316	     -0.87734987	      0.98892200	      0.27109176	    -22.42165131	     10.55640360	      4.47746179	     -3.96200735	     11.59118170	     -8.77935132	      4.48737426	     30.97641852	     -9.81110850	     11.51526971	     -7.77321894	      0.00000000	      0.00000000	      0.00000000	      0.00000000	      0.00000000	      0.00000000	     -0.64360365	     -9.65526713	      6.48992680	      9.43073767
      0.00833333	     -2.65457735	     -7.58076520	     -7.48117466	     -0.87186804	      0.98848864	      0.27081674	    -22.39057870	     10.53721379	      4.48166588	     -4.47473725	     11.40067733	     -8.84490619	      4.46487600	     30.73585192	     -9.77480604	     11.58824138	     -7.61185286	      0.00000000	      0.00000000	      0.00000000	      0.00000000	      0.00000000	      0.00000000	     -1.08172754	     -9.57648203	      6.49075753	      9.40634092
      0.01250000	     -2.72016601	     -7.61301366	     -7.39208177	     -0.86598759	      0.98794732	      0.27035539	    -22.48736667	     10.55090100	      4.54333079	     -4.73470522	     11.34149006	     -8.84918869	      4.46088198	     30.57724835	     -9.67462034	     11.57576901	     -7.63009100	      0.00000000	      0.00000000	      0.00000000	      0.00000000	      0.00000000	      0.00000000	     -1.15472803	     -9.42707520	      6.53909233	      9.40959650
      0.01666667	     -2.78928035	     -7.63976655	     -7.45764318	     -0.86023749	      0.98759734	      0.27011199	    -22.31472330	     10.51389836	      4.42875135	     -5.52415986	     11.06333152	     -9.00229794	      4.43422087	     30.31562854	     -9.66712560	     11.56524532	     -7.47707737	      0.00000000	      0.00000000	      0.00000000	      0.00000000	      0.00000000	      0.00000000	     -1.59554939	     -9.37293186	      6.56063027	      9.37976970
      0.02083333	     -2.85666894	     -7.66285958	     -7.37477491	     -0.85405837	      0.98709007	      0.26968433	    -22.40874283	     10.51569508	      4.50821728	     -5.80425270	     11.00170719	     -9.00150485	      4.43202004	     30.14170024	     -9.56389031	     11.58988776	     -7.51815221	      0.00000000	      0.00000000	      0.00000000	      0.00000000	      0.00000000	      0.00000000	     -1.66366567	     -9.20390723	      6.59077425	      9.38230101
      0.02500000	     -2.94889866	     -7.65295496	     -7.42106913	     -0.84807630	      0.98672630	      0.26943978	    -22.19097917	     10.46140935	      4.41955434	     -6.63767489	     10.69557033	     -9.14813155	      4.40638522	     29.89426726	     -9.51583576	     11.66163667	     -7.37130943	      0.00000000	      0.00000000	      0.00000000	      0.00000000	      0.00000000	      0.00000000	     -2.09712300	     -9.12125028	      6.56014455	      9.35091147
      0.02916667	     -3.05830193	     -7.64948506	     -7.42485375	     -0.84188789	      0.98633711	      0.26907172	    -22.02315669	     10.41706346	      4.35987506	     -7.32624960	     10.46453397	     -9.26076263	      4.41596230	     29.70645697	     -9.43412759	     11.68538701	     -7.34328912	      0.00000000	      0.00000000	      0.00000000	      0.00000000	      0.00000000	      0.00000000	     -2.34536610	     -8.95978445	      6.55402998	      9.34367862
